<mxfile host="app.diagrams.net" modified="2023-01-05T04:21:08.438Z" agent="5.0 (Windows NT 10.0; Win64; x64) AppleWebKit/537.36 (KHTML, like Gecko) Chrome/108.0.0.0 Safari/537.36" version="20.8.1" etag="pgr46PZ71z7L3d5QyW7d" type="github">
  <diagram id="nvYJo4ivjRxX64Fqw-4A" name="페이지-1">
    <mxGraphModel dx="933" dy="1312" grid="1" gridSize="10" guides="1" tooltips="1" connect="1" arrows="1" fold="1" page="1" pageScale="1" pageWidth="827" pageHeight="1169" math="0" shadow="0">
      <root>
        <mxCell id="0" />
        <mxCell id="1" parent="0" />
        <mxCell id="256csf4E9Je8cw7tJ8nM-1" value="이용자" style="shape=umlActor;verticalLabelPosition=bottom;verticalAlign=top;html=1;outlineConnect=0;" vertex="1" parent="1">
          <mxGeometry x="10" y="390" width="30" height="60" as="geometry" />
        </mxCell>
        <mxCell id="256csf4E9Je8cw7tJ8nM-2" value="게시판 서비스" style="shape=umlFrame;whiteSpace=wrap;html=1;width=110;height=20;swimlaneFillColor=default;" vertex="1" parent="1">
          <mxGeometry x="100" y="310" width="590" height="460" as="geometry" />
        </mxCell>
        <mxCell id="256csf4E9Je8cw7tJ8nM-20" style="edgeStyle=none;rounded=0;orthogonalLoop=1;jettySize=auto;html=1;endArrow=none;endFill=0;" edge="1" parent="1" source="256csf4E9Je8cw7tJ8nM-5">
          <mxGeometry relative="1" as="geometry">
            <mxPoint x="50" y="420" as="targetPoint" />
          </mxGeometry>
        </mxCell>
        <mxCell id="256csf4E9Je8cw7tJ8nM-5" value="회원 가입" style="rounded=1;whiteSpace=wrap;html=1;arcSize=40;fontColor=#000000;fillColor=#ffffc0;strokeColor=#ff0000;" vertex="1" parent="1">
          <mxGeometry x="120" y="420" width="120" height="40" as="geometry" />
        </mxCell>
        <mxCell id="256csf4E9Je8cw7tJ8nM-19" style="edgeStyle=none;rounded=0;orthogonalLoop=1;jettySize=auto;html=1;exitX=0;exitY=0.25;exitDx=0;exitDy=0;strokeColor=default;endArrow=none;endFill=0;" edge="1" parent="1" source="256csf4E9Je8cw7tJ8nM-7">
          <mxGeometry relative="1" as="geometry">
            <mxPoint x="50" y="420" as="targetPoint" />
          </mxGeometry>
        </mxCell>
        <mxCell id="256csf4E9Je8cw7tJ8nM-25" value="include" style="edgeStyle=none;rounded=1;orthogonalLoop=1;jettySize=auto;html=1;exitX=1;exitY=0.25;exitDx=0;exitDy=0;dashed=1;strokeColor=default;endArrow=classic;endFill=1;" edge="1" parent="1" source="256csf4E9Je8cw7tJ8nM-7" target="256csf4E9Je8cw7tJ8nM-10">
          <mxGeometry relative="1" as="geometry" />
        </mxCell>
        <mxCell id="256csf4E9Je8cw7tJ8nM-26" style="edgeStyle=none;rounded=1;orthogonalLoop=1;jettySize=auto;html=1;exitX=1;exitY=0.75;exitDx=0;exitDy=0;entryX=0;entryY=0.5;entryDx=0;entryDy=0;dashed=1;strokeColor=default;endArrow=classic;endFill=1;" edge="1" parent="1" source="256csf4E9Je8cw7tJ8nM-7" target="256csf4E9Je8cw7tJ8nM-11">
          <mxGeometry relative="1" as="geometry" />
        </mxCell>
        <mxCell id="256csf4E9Je8cw7tJ8nM-27" value="extend" style="edgeLabel;html=1;align=center;verticalAlign=middle;resizable=0;points=[];" vertex="1" connectable="0" parent="256csf4E9Je8cw7tJ8nM-26">
          <mxGeometry x="0.1516" y="-1" relative="1" as="geometry">
            <mxPoint as="offset" />
          </mxGeometry>
        </mxCell>
        <mxCell id="256csf4E9Je8cw7tJ8nM-7" value="로그인" style="rounded=1;whiteSpace=wrap;html=1;arcSize=40;fontColor=#000000;fillColor=#ffffc0;strokeColor=#ff0000;" vertex="1" parent="1">
          <mxGeometry x="300" y="330" width="120" height="40" as="geometry" />
        </mxCell>
        <mxCell id="256csf4E9Je8cw7tJ8nM-18" style="rounded=0;orthogonalLoop=1;jettySize=auto;html=1;exitX=0;exitY=0.25;exitDx=0;exitDy=0;endArrow=none;endFill=0;" edge="1" parent="1" source="256csf4E9Je8cw7tJ8nM-8">
          <mxGeometry relative="1" as="geometry">
            <mxPoint x="50" y="420" as="targetPoint" />
          </mxGeometry>
        </mxCell>
        <mxCell id="256csf4E9Je8cw7tJ8nM-28" style="edgeStyle=none;rounded=1;orthogonalLoop=1;jettySize=auto;html=1;dashed=1;strokeColor=default;endArrow=classic;endFill=1;" edge="1" parent="1" source="256csf4E9Je8cw7tJ8nM-8" target="256csf4E9Je8cw7tJ8nM-7">
          <mxGeometry relative="1" as="geometry" />
        </mxCell>
        <mxCell id="256csf4E9Je8cw7tJ8nM-8" value="게시판" style="rounded=1;whiteSpace=wrap;html=1;arcSize=40;fontColor=#000000;fillColor=#ffffc0;strokeColor=#ff0000;" vertex="1" parent="1">
          <mxGeometry x="150" y="520" width="120" height="40" as="geometry" />
        </mxCell>
        <mxCell id="256csf4E9Je8cw7tJ8nM-21" style="edgeStyle=none;rounded=0;orthogonalLoop=1;jettySize=auto;html=1;exitX=0;exitY=0.5;exitDx=0;exitDy=0;endArrow=none;endFill=0;" edge="1" parent="1" source="256csf4E9Je8cw7tJ8nM-9">
          <mxGeometry relative="1" as="geometry">
            <mxPoint x="50" y="420" as="targetPoint" />
          </mxGeometry>
        </mxCell>
        <mxCell id="256csf4E9Je8cw7tJ8nM-29" style="edgeStyle=none;rounded=1;orthogonalLoop=1;jettySize=auto;html=1;exitX=1;exitY=0.25;exitDx=0;exitDy=0;dashed=1;strokeColor=default;endArrow=classic;endFill=1;" edge="1" parent="1" source="256csf4E9Je8cw7tJ8nM-9" target="256csf4E9Je8cw7tJ8nM-7">
          <mxGeometry relative="1" as="geometry" />
        </mxCell>
        <mxCell id="256csf4E9Je8cw7tJ8nM-9" value="게시글 만들기" style="rounded=1;whiteSpace=wrap;html=1;arcSize=40;fontColor=#000000;fillColor=#ffffc0;strokeColor=#ff0000;" vertex="1" parent="1">
          <mxGeometry x="150" y="630" width="120" height="40" as="geometry" />
        </mxCell>
        <mxCell id="256csf4E9Je8cw7tJ8nM-37" style="edgeStyle=none;rounded=1;orthogonalLoop=1;jettySize=auto;html=1;exitX=1;exitY=0.5;exitDx=0;exitDy=0;entryX=0;entryY=0.5;entryDx=0;entryDy=0;strokeColor=default;endArrow=classic;endFill=1;" edge="1" parent="1" source="256csf4E9Je8cw7tJ8nM-10" target="256csf4E9Je8cw7tJ8nM-36">
          <mxGeometry relative="1" as="geometry" />
        </mxCell>
        <mxCell id="256csf4E9Je8cw7tJ8nM-10" value="인증" style="rounded=1;whiteSpace=wrap;html=1;arcSize=40;fontColor=#000000;fillColor=#ffffc0;strokeColor=#ff0000;" vertex="1" parent="1">
          <mxGeometry x="520" y="320" width="120" height="40" as="geometry" />
        </mxCell>
        <mxCell id="256csf4E9Je8cw7tJ8nM-11" value="로그인 실패" style="rounded=1;whiteSpace=wrap;html=1;arcSize=40;fontColor=#000000;fillColor=#ffffc0;strokeColor=#ff0000;" vertex="1" parent="1">
          <mxGeometry x="530" y="390" width="120" height="40" as="geometry" />
        </mxCell>
        <mxCell id="256csf4E9Je8cw7tJ8nM-30" style="edgeStyle=none;rounded=1;orthogonalLoop=1;jettySize=auto;html=1;exitX=0;exitY=0.5;exitDx=0;exitDy=0;entryX=1;entryY=0.75;entryDx=0;entryDy=0;dashed=1;strokeColor=default;endArrow=classic;endFill=1;" edge="1" parent="1" source="256csf4E9Je8cw7tJ8nM-12" target="256csf4E9Je8cw7tJ8nM-8">
          <mxGeometry relative="1" as="geometry" />
        </mxCell>
        <mxCell id="256csf4E9Je8cw7tJ8nM-38" style="edgeStyle=none;rounded=1;orthogonalLoop=1;jettySize=auto;html=1;exitX=1;exitY=0.5;exitDx=0;exitDy=0;strokeColor=default;endArrow=classic;endFill=1;" edge="1" parent="1" source="256csf4E9Je8cw7tJ8nM-12">
          <mxGeometry relative="1" as="geometry">
            <mxPoint x="720" y="540" as="targetPoint" />
          </mxGeometry>
        </mxCell>
        <mxCell id="256csf4E9Je8cw7tJ8nM-12" value="게시판 정렬" style="rounded=1;whiteSpace=wrap;html=1;arcSize=40;fontColor=#000000;fillColor=#ffffc0;strokeColor=#ff0000;" vertex="1" parent="1">
          <mxGeometry x="390" y="470" width="120" height="40" as="geometry" />
        </mxCell>
        <mxCell id="256csf4E9Je8cw7tJ8nM-31" style="edgeStyle=none;rounded=1;orthogonalLoop=1;jettySize=auto;html=1;exitX=0;exitY=0.5;exitDx=0;exitDy=0;entryX=1;entryY=0.5;entryDx=0;entryDy=0;dashed=1;strokeColor=default;endArrow=classic;endFill=1;" edge="1" parent="1" source="256csf4E9Je8cw7tJ8nM-13" target="256csf4E9Je8cw7tJ8nM-8">
          <mxGeometry relative="1" as="geometry" />
        </mxCell>
        <mxCell id="256csf4E9Je8cw7tJ8nM-39" style="edgeStyle=none;rounded=1;orthogonalLoop=1;jettySize=auto;html=1;exitX=1;exitY=0.5;exitDx=0;exitDy=0;strokeColor=default;endArrow=classic;endFill=1;" edge="1" parent="1" source="256csf4E9Je8cw7tJ8nM-13">
          <mxGeometry relative="1" as="geometry">
            <mxPoint x="720" y="550" as="targetPoint" />
          </mxGeometry>
        </mxCell>
        <mxCell id="256csf4E9Je8cw7tJ8nM-13" value="게시판 검색" style="rounded=1;whiteSpace=wrap;html=1;arcSize=40;fontColor=#000000;fillColor=#ffffc0;strokeColor=#ff0000;" vertex="1" parent="1">
          <mxGeometry x="390" y="520" width="120" height="40" as="geometry" />
        </mxCell>
        <mxCell id="256csf4E9Je8cw7tJ8nM-32" style="edgeStyle=none;rounded=1;orthogonalLoop=1;jettySize=auto;html=1;exitX=0;exitY=0.5;exitDx=0;exitDy=0;entryX=1;entryY=0.5;entryDx=0;entryDy=0;dashed=1;strokeColor=default;endArrow=classic;endFill=1;" edge="1" parent="1" source="256csf4E9Je8cw7tJ8nM-14" target="256csf4E9Je8cw7tJ8nM-9">
          <mxGeometry relative="1" as="geometry" />
        </mxCell>
        <mxCell id="256csf4E9Je8cw7tJ8nM-42" style="edgeStyle=none;rounded=1;orthogonalLoop=1;jettySize=auto;html=1;entryX=0;entryY=0.75;entryDx=0;entryDy=0;strokeColor=default;endArrow=classic;endFill=1;" edge="1" parent="1" source="256csf4E9Je8cw7tJ8nM-14" target="256csf4E9Je8cw7tJ8nM-36">
          <mxGeometry relative="1" as="geometry" />
        </mxCell>
        <mxCell id="256csf4E9Je8cw7tJ8nM-14" value="게시글 쓰기, 수정, 삭제" style="rounded=1;whiteSpace=wrap;html=1;arcSize=40;fontColor=#000000;fillColor=#ffffc0;strokeColor=#ff0000;" vertex="1" parent="1">
          <mxGeometry x="330" y="630" width="130" height="40" as="geometry" />
        </mxCell>
        <mxCell id="256csf4E9Je8cw7tJ8nM-33" style="edgeStyle=none;rounded=1;orthogonalLoop=1;jettySize=auto;html=1;exitX=0;exitY=0.5;exitDx=0;exitDy=0;dashed=1;strokeColor=default;endArrow=classic;endFill=1;entryX=1;entryY=0.75;entryDx=0;entryDy=0;" edge="1" parent="1" source="256csf4E9Je8cw7tJ8nM-15" target="256csf4E9Je8cw7tJ8nM-9">
          <mxGeometry relative="1" as="geometry">
            <mxPoint x="300" y="680" as="targetPoint" />
          </mxGeometry>
        </mxCell>
        <mxCell id="256csf4E9Je8cw7tJ8nM-40" style="edgeStyle=none;rounded=1;orthogonalLoop=1;jettySize=auto;html=1;dashed=1;strokeColor=default;endArrow=classic;endFill=1;" edge="1" parent="1" source="256csf4E9Je8cw7tJ8nM-2">
          <mxGeometry relative="1" as="geometry">
            <mxPoint x="710" y="550" as="targetPoint" />
          </mxGeometry>
        </mxCell>
        <mxCell id="256csf4E9Je8cw7tJ8nM-41" style="edgeStyle=none;rounded=1;orthogonalLoop=1;jettySize=auto;html=1;exitX=1;exitY=0.5;exitDx=0;exitDy=0;strokeColor=default;endArrow=classic;endFill=1;" edge="1" parent="1" source="256csf4E9Je8cw7tJ8nM-15">
          <mxGeometry relative="1" as="geometry">
            <mxPoint x="720" y="550" as="targetPoint" />
          </mxGeometry>
        </mxCell>
        <mxCell id="256csf4E9Je8cw7tJ8nM-15" value="댓글 보기, 쓰기, 수정 삭제" style="rounded=1;whiteSpace=wrap;html=1;arcSize=40;fontColor=#000000;fillColor=#ffffc0;strokeColor=#ff0000;" vertex="1" parent="1">
          <mxGeometry x="320" y="680" width="150" height="40" as="geometry" />
        </mxCell>
        <mxCell id="256csf4E9Je8cw7tJ8nM-36" value="DB" style="html=1;" vertex="1" parent="1">
          <mxGeometry x="710" y="510" width="70" height="50" as="geometry" />
        </mxCell>
      </root>
    </mxGraphModel>
  </diagram>
</mxfile>
